<?xml version="1.0" encoding="utf-8" standalone="no"?>
<!DOCTYPE svg PUBLIC "-//W3C//DTD SVG 1.1//EN"
  "http://www.w3.org/Graphics/SVG/1.1/DTD/svg11.dtd">
<svg xmlns:xlink="http://www.w3.org/1999/xlink" width="288pt" height="216pt" viewBox="0 0 288 216" xmlns="http://www.w3.org/2000/svg" version="1.1">
 <metadata>
  <rdf:RDF xmlns:dc="http://purl.org/dc/elements/1.1/" xmlns:cc="http://creativecommons.org/ns#" xmlns:rdf="http://www.w3.org/1999/02/22-rdf-syntax-ns#">
   <cc:Work>
    <dc:type rdf:resource="http://purl.org/dc/dcmitype/StillImage"/>
    <dc:date>2026-09-16T09:58:24.222195</dc:date>
    <dc:format>image/svg+xml</dc:format>
    <dc:creator>
     <cc:Agent>
      <dc:title>Matplotlib v3.10.9, https://matplotlib.org/</dc:title>
     </cc:Agent>
    </dc:creator>
   </cc:Work>
  </rdf:RDF>
 </metadata>
 <defs>
  <style type="text/css">*{stroke-linejoin: round; stroke-linecap: butt}</style>
 </defs>
 <g id="figure_1">
  <g id="patch_1">
   <path d="M 0 216 
L 288 216 
L 288 0 
L 0 0 
z
" style="fill: #ffffff"/>
  </g>
  <g id="axes_1">
   <g id="patch_2">
    <path d="M 36 192.24 
L 259.2 192.24 
L 259.2 25.92 
L 36 25.92 
z
" style="fill: #ffffff"/>
   </g>
   <g id="FillBetweenPolyCollection_1">
    <defs>
     <path id="med73adf17b" d="M 46.145455 -106.919339 
L 46.145455 -106.919339 
L 47.165098 -108.058875 
L 48.184742 -109.197375 
L 49.204386 -110.333804 
L 50.224029 -111.467129 
L 51.243673 -112.596321 
L 52.263317 -113.720352 
L 53.28296 -114.838201 
L 54.302604 -115.948852 
L 55.322248 -117.051295 
L 56.341891 -118.144528 
L 57.361535 -119.227557 
L 58.381179 -120.299399 
L 59.400822 -121.359077 
L 60.420466 -122.40563 
L 61.44011 -123.438106 
L 62.459753 -124.455567 
L 63.479397 -125.457087 
L 64.499041 -126.441756 
L 65.518684 -127.408679 
L 66.538328 -128.356978 
L 67.557972 -129.28579 
L 68.577615 -130.194271 
L 69.597259 -131.081594 
L 70.616903 -131.946955 
L 71.636546 -132.789565 
L 72.65619 -133.608659 
L 73.675834 -134.403493 
L 74.695477 -135.173344 
L 75.715121 -135.917511 
L 76.734765 -136.63532 
L 77.754408 -137.326117 
L 78.774052 -137.989274 
L 79.793696 -138.624188 
L 80.813339 -139.230283 
L 81.832983 -139.807007 
L 82.852627 -140.353836 
L 83.87227 -140.870273 
L 84.891914 -141.355849 
L 85.911558 -141.810122 
L 86.931201 -142.23268 
L 87.950845 -142.623138 
L 88.970489 -142.98114 
L 89.990132 -143.306363 
L 91.009776 -143.59851 
L 92.02942 -143.857316 
L 93.049063 -144.082545 
L 94.068707 -144.273993 
L 95.088351 -144.431485 
L 96.107995 -144.554879 
L 97.127638 -144.644063 
L 98.147282 -144.698954 
L 99.166926 -144.719504 
L 100.186569 -144.705694 
L 101.206213 -144.657536 
L 102.225857 -144.575073 
L 103.2455 -144.458382 
L 104.265144 -144.307568 
L 105.284788 -144.122768 
L 106.304431 -143.90415 
L 107.324075 -143.651913 
L 108.343719 -143.366286 
L 109.363362 -143.047529 
L 110.383006 -142.695931 
L 111.40265 -142.311813 
L 112.422293 -141.895523 
L 113.441937 -141.447439 
L 114.461581 -140.967969 
L 115.481224 -140.45755 
L 116.500868 -139.916644 
L 117.520512 -139.345743 
L 118.540155 -138.745367 
L 119.559799 -138.116061 
L 120.579443 -137.458397 
L 121.599086 -136.772974 
L 122.61873 -136.060413 
L 123.638374 -135.321363 
L 124.658017 -134.556496 
L 125.677661 -133.766507 
L 126.697305 -132.952113 
L 127.716948 -132.114056 
L 128.736592 -131.253097 
L 129.756236 -130.370018 
L 130.775879 -129.465623 
L 131.795523 -128.540734 
L 132.815167 -127.59619 
L 133.83481 -126.632851 
L 134.854454 -125.651593 
L 135.874098 -124.653307 
L 136.893741 -123.638901 
L 137.913385 -122.609297 
L 138.933029 -121.56543 
L 139.952672 -120.508251 
L 140.972316 -119.438719 
L 141.99196 -118.357807 
L 143.011603 -117.266497 
L 144.031247 -116.165782 
L 145.050891 -115.056662 
L 146.070534 -113.940145 
L 147.090178 -112.817246 
L 148.109822 -111.688986 
L 149.129466 -110.55639 
L 150.149109 -109.420488 
L 151.168753 -108.282313 
L 152.188397 -107.142899 
L 153.20804 -106.003281 
L 154.227684 -104.864496 
L 155.247328 -103.727579 
L 156.266971 -102.593564 
L 157.286615 -101.46348 
L 158.306259 -100.338356 
L 159.325902 -99.219214 
L 160.345546 -98.107072 
L 161.36519 -97.002939 
L 162.384833 -95.907821 
L 163.404477 -94.822712 
L 164.424121 -93.748599 
L 165.443764 -92.686459 
L 166.463408 -91.637255 
L 167.483052 -90.601944 
L 168.502695 -89.581464 
L 169.522339 -88.576745 
L 170.541983 -87.5887 
L 171.561626 -86.618226 
L 172.58127 -85.666205 
L 173.600914 -84.733504 
L 174.620557 -83.820969 
L 175.640201 -82.929431 
L 176.659845 -82.0597 
L 177.679488 -81.212566 
L 178.699132 -80.388799 
L 179.718776 -79.589149 
L 180.738419 -78.814342 
L 181.758063 -78.065082 
L 182.777707 -77.342051 
L 183.79735 -76.645906 
L 184.816994 -75.977279 
L 185.836638 -75.336778 
L 186.856281 -74.724986 
L 187.875925 -74.142458 
L 188.895569 -73.589725 
L 189.915212 -73.067288 
L 190.934856 -72.575623 
L 191.9545 -72.115176 
L 192.974143 -71.686366 
L 193.993787 -71.289583 
L 195.013431 -70.925187 
L 196.033074 -70.59351 
L 197.052718 -70.294853 
L 198.072362 -70.029488 
L 199.092005 -69.797655 
L 200.111649 -69.599567 
L 201.131293 -69.435401 
L 202.150937 -69.305309 
L 203.17058 -69.209408 
L 204.190224 -69.147785 
L 205.209868 -69.120496 
L 206.229511 -69.127566 
L 207.249155 -69.168989 
L 208.268799 -69.244727 
L 209.288442 -69.354712 
L 210.308086 -69.498842 
L 211.32773 -69.676988 
L 212.347373 -69.888987 
L 213.367017 -70.134647 
L 214.386661 -70.413743 
L 215.406304 -70.726024 
L 216.425948 -71.071204 
L 217.445592 -71.44897 
L 218.465235 -71.858978 
L 219.484879 -72.300857 
L 220.504523 -72.774203 
L 221.524166 -73.278588 
L 222.54381 -73.813551 
L 223.563454 -74.378608 
L 224.583097 -74.973245 
L 225.602741 -75.59692 
L 226.622385 -76.249068 
L 227.642028 -76.929094 
L 228.661672 -77.636382 
L 229.681316 -78.370288 
L 230.700959 -79.130145 
L 231.720603 -79.915263 
L 232.740247 -80.724927 
L 233.75989 -81.558402 
L 234.779534 -82.414929 
L 235.799178 -83.293732 
L 236.818821 -84.19401 
L 237.838465 -85.114945 
L 238.858109 -86.055701 
L 239.877752 -87.015421 
L 240.897396 -87.993234 
L 241.91704 -88.988251 
L 242.936683 -89.999567 
L 243.956327 -91.026264 
L 244.975971 -92.067407 
L 245.995614 -93.122051 
L 247.015258 -94.189236 
L 248.034902 -95.267993 
L 249.054545 -96.357341 
L 249.054545 -106.919339 
L 249.054545 -106.919339 
L 248.034902 -106.919339 
L 247.015258 -106.919339 
L 245.995614 -106.919339 
L 244.975971 -106.919339 
L 243.956327 -106.919339 
L 242.936683 -106.919339 
L 241.91704 -106.919339 
L 240.897396 -106.919339 
L 239.877752 -106.919339 
L 238.858109 -106.919339 
L 237.838465 -106.919339 
L 236.818821 -106.919339 
L 235.799178 -106.919339 
L 234.779534 -106.919339 
L 233.75989 -106.919339 
L 232.740247 -106.919339 
L 231.720603 -106.919339 
L 230.700959 -106.919339 
L 229.681316 -106.919339 
L 228.661672 -106.919339 
L 227.642028 -106.919339 
L 226.622385 -106.919339 
L 225.602741 -106.919339 
L 224.583097 -106.919339 
L 223.563454 -106.919339 
L 222.54381 -106.919339 
L 221.524166 -106.919339 
L 220.504523 -106.919339 
L 219.484879 -106.919339 
L 218.465235 -106.919339 
L 217.445592 -106.919339 
L 216.425948 -106.919339 
L 215.406304 -106.919339 
L 214.386661 -106.919339 
L 213.367017 -106.919339 
L 212.347373 -106.919339 
L 211.32773 -106.919339 
L 210.308086 -106.919339 
L 209.288442 -106.919339 
L 208.268799 -106.919339 
L 207.249155 -106.919339 
L 206.229511 -106.919339 
L 205.209868 -106.919339 
L 204.190224 -106.919339 
L 203.17058 -106.919339 
L 202.150937 -106.919339 
L 201.131293 -106.919339 
L 200.111649 -106.919339 
L 199.092005 -106.919339 
L 198.072362 -106.919339 
L 197.052718 -106.919339 
L 196.033074 -106.919339 
L 195.013431 -106.919339 
L 193.993787 -106.919339 
L 192.974143 -106.919339 
L 191.9545 -106.919339 
L 190.934856 -106.919339 
L 189.915212 -106.919339 
L 188.895569 -106.919339 
L 187.875925 -106.919339 
L 186.856281 -106.919339 
L 185.836638 -106.919339 
L 184.816994 -106.919339 
L 183.79735 -106.919339 
L 182.777707 -106.919339 
L 181.758063 -106.919339 
L 180.738419 -106.919339 
L 179.718776 -106.919339 
L 178.699132 -106.919339 
L 177.679488 -106.919339 
L 176.659845 -106.919339 
L 175.640201 -106.919339 
L 174.620557 -106.919339 
L 173.600914 -106.919339 
L 172.58127 -106.919339 
L 171.561626 -106.919339 
L 170.541983 -106.919339 
L 169.522339 -106.919339 
L 168.502695 -106.919339 
L 167.483052 -106.919339 
L 166.463408 -106.919339 
L 165.443764 -106.919339 
L 164.424121 -106.919339 
L 163.404477 -106.919339 
L 162.384833 -106.919339 
L 161.36519 -106.919339 
L 160.345546 -106.919339 
L 159.325902 -106.919339 
L 158.306259 -106.919339 
L 157.286615 -106.919339 
L 156.266971 -106.919339 
L 155.247328 -106.919339 
L 154.227684 -106.919339 
L 153.20804 -106.919339 
L 152.188397 -106.919339 
L 151.168753 -106.919339 
L 150.149109 -106.919339 
L 149.129466 -106.919339 
L 148.109822 -106.919339 
L 147.090178 -106.919339 
L 146.070534 -106.919339 
L 145.050891 -106.919339 
L 144.031247 -106.919339 
L 143.011603 -106.919339 
L 141.99196 -106.919339 
L 140.972316 -106.919339 
L 139.952672 -106.919339 
L 138.933029 -106.919339 
L 137.913385 -106.919339 
L 136.893741 -106.919339 
L 135.874098 -106.919339 
L 134.854454 -106.919339 
L 133.83481 -106.919339 
L 132.815167 -106.919339 
L 131.795523 -106.919339 
L 130.775879 -106.919339 
L 129.756236 -106.919339 
L 128.736592 -106.919339 
L 127.716948 -106.919339 
L 126.697305 -106.919339 
L 125.677661 -106.919339 
L 124.658017 -106.919339 
L 123.638374 -106.919339 
L 122.61873 -106.919339 
L 121.599086 -106.919339 
L 120.579443 -106.919339 
L 119.559799 -106.919339 
L 118.540155 -106.919339 
L 117.520512 -106.919339 
L 116.500868 -106.919339 
L 115.481224 -106.919339 
L 114.461581 -106.919339 
L 113.441937 -106.919339 
L 112.422293 -106.919339 
L 111.40265 -106.919339 
L 110.383006 -106.919339 
L 109.363362 -106.919339 
L 108.343719 -106.919339 
L 107.324075 -106.919339 
L 106.304431 -106.919339 
L 105.284788 -106.919339 
L 104.265144 -106.919339 
L 103.2455 -106.919339 
L 102.225857 -106.919339 
L 101.206213 -106.919339 
L 100.186569 -106.919339 
L 99.166926 -106.919339 
L 98.147282 -106.919339 
L 97.127638 -106.919339 
L 96.107995 -106.919339 
L 95.088351 -106.919339 
L 94.068707 -106.919339 
L 93.049063 -106.919339 
L 92.02942 -106.919339 
L 91.009776 -106.919339 
L 89.990132 -106.919339 
L 88.970489 -106.919339 
L 87.950845 -106.919339 
L 86.931201 -106.919339 
L 85.911558 -106.919339 
L 84.891914 -106.919339 
L 83.87227 -106.919339 
L 82.852627 -106.919339 
L 81.832983 -106.919339 
L 80.813339 -106.919339 
L 79.793696 -106.919339 
L 78.774052 -106.919339 
L 77.754408 -106.919339 
L 76.734765 -106.919339 
L 75.715121 -106.919339 
L 74.695477 -106.919339 
L 73.675834 -106.919339 
L 72.65619 -106.919339 
L 71.636546 -106.919339 
L 70.616903 -106.919339 
L 69.597259 -106.919339 
L 68.577615 -106.919339 
L 67.557972 -106.919339 
L 66.538328 -106.919339 
L 65.518684 -106.919339 
L 64.499041 -106.919339 
L 63.479397 -106.919339 
L 62.459753 -106.919339 
L 61.44011 -106.919339 
L 60.420466 -106.919339 
L 59.400822 -106.919339 
L 58.381179 -106.919339 
L 57.361535 -106.919339 
L 56.341891 -106.919339 
L 55.322248 -106.919339 
L 54.302604 -106.919339 
L 53.28296 -106.919339 
L 52.263317 -106.919339 
L 51.243673 -106.919339 
L 50.224029 -106.919339 
L 49.204386 -106.919339 
L 48.184742 -106.919339 
L 47.165098 -106.919339 
L 46.145455 -106.919339 
z
" style="stroke: #ffa500; stroke-opacity: 0.3"/>
    </defs>
    <g clip-path="url(#p5983f4e3bb)">
     <use xlink:href="#med73adf17b" x="0" y="216" style="fill: #ffa500; fill-opacity: 0.3; stroke: #ffa500; stroke-opacity: 0.3"/>
    </g>
   </g>
   <g id="matplotlib.axis_1">
    <g id="xtick_1">
     <g id="line2d_1">
      <path d="M 46.145455 192.24 
L 46.145455 25.92 
" clip-path="url(#p5983f4e3bb)" style="fill: none; stroke: #b0b0b0; stroke-opacity: 0.4; stroke-width: 0.8; stroke-linecap: square"/>
     </g>
     <g id="line2d_2">
      <defs>
       <path id="mfe6f017321" d="M 0 0 
L 0 3.5 
" style="stroke: #000000; stroke-width: 0.8"/>
      </defs>
      <g>
       <use xlink:href="#mfe6f017321" x="46.145455" y="192.24" style="stroke: #000000; stroke-width: 0.8"/>
      </g>
     </g>
     <g id="text_1">
      <!-- 0 -->
      <g transform="translate(42.964205 206.838437) scale(0.1 -0.1)">
       <defs>
        <path id="DejaVuSans-30" d="M 2034 4250 
Q 1547 4250 1301 3770 
Q 1056 3291 1056 2328 
Q 1056 1369 1301 889 
Q 1547 409 2034 409 
Q 2525 409 2770 889 
Q 3016 1369 3016 2328 
Q 3016 3291 2770 3770 
Q 2525 4250 2034 4250 
z
M 2034 4750 
Q 2819 4750 3233 4129 
Q 3647 3509 3647 2328 
Q 3647 1150 3233 529 
Q 2819 -91 2034 -91 
Q 1250 -91 836 529 
Q 422 1150 422 2328 
Q 422 3509 836 4129 
Q 1250 4750 2034 4750 
z
" transform="scale(0.015625)"/>
       </defs>
       <use xlink:href="#DejaVuSans-30"/>
      </g>
     </g>
    </g>
    <g id="xtick_2">
     <g id="line2d_3">
      <path d="M 79.963636 192.24 
L 79.963636 25.92 
" clip-path="url(#p5983f4e3bb)" style="fill: none; stroke: #b0b0b0; stroke-opacity: 0.4; stroke-width: 0.8; stroke-linecap: square"/>
     </g>
     <g id="line2d_4">
      <g>
       <use xlink:href="#mfe6f017321" x="79.963636" y="192.24" style="stroke: #000000; stroke-width: 0.8"/>
      </g>
     </g>
     <g id="text_2">
      <!-- 1 -->
      <g transform="translate(76.782386 206.838437) scale(0.1 -0.1)">
       <defs>
        <path id="DejaVuSans-31" d="M 794 531 
L 1825 531 
L 1825 4091 
L 703 3866 
L 703 4441 
L 1819 4666 
L 2450 4666 
L 2450 531 
L 3481 531 
L 3481 0 
L 794 0 
L 794 531 
z
" transform="scale(0.015625)"/>
       </defs>
       <use xlink:href="#DejaVuSans-31"/>
      </g>
     </g>
    </g>
    <g id="xtick_3">
     <g id="line2d_5">
      <path d="M 113.781818 192.24 
L 113.781818 25.92 
" clip-path="url(#p5983f4e3bb)" style="fill: none; stroke: #b0b0b0; stroke-opacity: 0.4; stroke-width: 0.8; stroke-linecap: square"/>
     </g>
     <g id="line2d_6">
      <g>
       <use xlink:href="#mfe6f017321" x="113.781818" y="192.24" style="stroke: #000000; stroke-width: 0.8"/>
      </g>
     </g>
     <g id="text_3">
      <!-- 2 -->
      <g transform="translate(110.600568 206.838437) scale(0.1 -0.1)">
       <defs>
        <path id="DejaVuSans-32" d="M 1228 531 
L 3431 531 
L 3431 0 
L 469 0 
L 469 531 
Q 828 903 1448 1529 
Q 2069 2156 2228 2338 
Q 2531 2678 2651 2914 
Q 2772 3150 2772 3378 
Q 2772 3750 2511 3984 
Q 2250 4219 1831 4219 
Q 1534 4219 1204 4116 
Q 875 4013 500 3803 
L 500 4441 
Q 881 4594 1212 4672 
Q 1544 4750 1819 4750 
Q 2544 4750 2975 4387 
Q 3406 4025 3406 3419 
Q 3406 3131 3298 2873 
Q 3191 2616 2906 2266 
Q 2828 2175 2409 1742 
Q 1991 1309 1228 531 
z
" transform="scale(0.015625)"/>
       </defs>
       <use xlink:href="#DejaVuSans-32"/>
      </g>
     </g>
    </g>
    <g id="xtick_4">
     <g id="line2d_7">
      <path d="M 147.6 192.24 
L 147.6 25.92 
" clip-path="url(#p5983f4e3bb)" style="fill: none; stroke: #b0b0b0; stroke-opacity: 0.4; stroke-width: 0.8; stroke-linecap: square"/>
     </g>
     <g id="line2d_8">
      <g>
       <use xlink:href="#mfe6f017321" x="147.6" y="192.24" style="stroke: #000000; stroke-width: 0.8"/>
      </g>
     </g>
     <g id="text_4">
      <!-- 3 -->
      <g transform="translate(144.41875 206.838437) scale(0.1 -0.1)">
       <defs>
        <path id="DejaVuSans-33" d="M 2597 2516 
Q 3050 2419 3304 2112 
Q 3559 1806 3559 1356 
Q 3559 666 3084 287 
Q 2609 -91 1734 -91 
Q 1441 -91 1130 -33 
Q 819 25 488 141 
L 488 750 
Q 750 597 1062 519 
Q 1375 441 1716 441 
Q 2309 441 2620 675 
Q 2931 909 2931 1356 
Q 2931 1769 2642 2001 
Q 2353 2234 1838 2234 
L 1294 2234 
L 1294 2753 
L 1863 2753 
Q 2328 2753 2575 2939 
Q 2822 3125 2822 3475 
Q 2822 3834 2567 4026 
Q 2313 4219 1838 4219 
Q 1578 4219 1281 4162 
Q 984 4106 628 3988 
L 628 4550 
Q 988 4650 1302 4700 
Q 1616 4750 1894 4750 
Q 2613 4750 3031 4423 
Q 3450 4097 3450 3541 
Q 3450 3153 3228 2886 
Q 3006 2619 2597 2516 
z
" transform="scale(0.015625)"/>
       </defs>
       <use xlink:href="#DejaVuSans-33"/>
      </g>
     </g>
    </g>
    <g id="xtick_5">
     <g id="line2d_9">
      <path d="M 181.418182 192.24 
L 181.418182 25.92 
" clip-path="url(#p5983f4e3bb)" style="fill: none; stroke: #b0b0b0; stroke-opacity: 0.4; stroke-width: 0.8; stroke-linecap: square"/>
     </g>
     <g id="line2d_10">
      <g>
       <use xlink:href="#mfe6f017321" x="181.418182" y="192.24" style="stroke: #000000; stroke-width: 0.8"/>
      </g>
     </g>
     <g id="text_5">
      <!-- 4 -->
      <g transform="translate(178.236932 206.838437) scale(0.1 -0.1)">
       <defs>
        <path id="DejaVuSans-34" d="M 2419 4116 
L 825 1625 
L 2419 1625 
L 2419 4116 
z
M 2253 4666 
L 3047 4666 
L 3047 1625 
L 3713 1625 
L 3713 1100 
L 3047 1100 
L 3047 0 
L 2419 0 
L 2419 1100 
L 313 1100 
L 313 1709 
L 2253 4666 
z
" transform="scale(0.015625)"/>
       </defs>
       <use xlink:href="#DejaVuSans-34"/>
      </g>
     </g>
    </g>
    <g id="xtick_6">
     <g id="line2d_11">
      <path d="M 215.236364 192.24 
L 215.236364 25.92 
" clip-path="url(#p5983f4e3bb)" style="fill: none; stroke: #b0b0b0; stroke-opacity: 0.4; stroke-width: 0.8; stroke-linecap: square"/>
     </g>
     <g id="line2d_12">
      <g>
       <use xlink:href="#mfe6f017321" x="215.236364" y="192.24" style="stroke: #000000; stroke-width: 0.8"/>
      </g>
     </g>
     <g id="text_6">
      <!-- 5 -->
      <g transform="translate(212.055114 206.838437) scale(0.1 -0.1)">
       <defs>
        <path id="DejaVuSans-35" d="M 691 4666 
L 3169 4666 
L 3169 4134 
L 1269 4134 
L 1269 2991 
Q 1406 3038 1543 3061 
Q 1681 3084 1819 3084 
Q 2600 3084 3056 2656 
Q 3513 2228 3513 1497 
Q 3513 744 3044 326 
Q 2575 -91 1722 -91 
Q 1428 -91 1123 -41 
Q 819 9 494 109 
L 494 744 
Q 775 591 1075 516 
Q 1375 441 1709 441 
Q 2250 441 2565 725 
Q 2881 1009 2881 1497 
Q 2881 1984 2565 2268 
Q 2250 2553 1709 2553 
Q 1456 2553 1204 2497 
Q 953 2441 691 2322 
L 691 4666 
z
" transform="scale(0.015625)"/>
       </defs>
       <use xlink:href="#DejaVuSans-35"/>
      </g>
     </g>
    </g>
    <g id="xtick_7">
     <g id="line2d_13">
      <path d="M 249.054545 192.24 
L 249.054545 25.92 
" clip-path="url(#p5983f4e3bb)" style="fill: none; stroke: #b0b0b0; stroke-opacity: 0.4; stroke-width: 0.8; stroke-linecap: square"/>
     </g>
     <g id="line2d_14">
      <g>
       <use xlink:href="#mfe6f017321" x="249.054545" y="192.24" style="stroke: #000000; stroke-width: 0.8"/>
      </g>
     </g>
     <g id="text_7">
      <!-- 6 -->
      <g transform="translate(245.873295 206.838437) scale(0.1 -0.1)">
       <defs>
        <path id="DejaVuSans-36" d="M 2113 2584 
Q 1688 2584 1439 2293 
Q 1191 2003 1191 1497 
Q 1191 994 1439 701 
Q 1688 409 2113 409 
Q 2538 409 2786 701 
Q 3034 994 3034 1497 
Q 3034 2003 2786 2293 
Q 2538 2584 2113 2584 
z
M 3366 4563 
L 3366 3988 
Q 3128 4100 2886 4159 
Q 2644 4219 2406 4219 
Q 1781 4219 1451 3797 
Q 1122 3375 1075 2522 
Q 1259 2794 1537 2939 
Q 1816 3084 2150 3084 
Q 2853 3084 3261 2657 
Q 3669 2231 3669 1497 
Q 3669 778 3244 343 
Q 2819 -91 2113 -91 
Q 1303 -91 875 529 
Q 447 1150 447 2328 
Q 447 3434 972 4092 
Q 1497 4750 2381 4750 
Q 2619 4750 2861 4703 
Q 3103 4656 3366 4563 
z
" transform="scale(0.015625)"/>
       </defs>
       <use xlink:href="#DejaVuSans-36"/>
      </g>
     </g>
    </g>
   </g>
   <g id="matplotlib.axis_2">
    <g id="ytick_1">
     <g id="line2d_15">
      <path d="M 36 184.681322 
L 259.2 184.681322 
" clip-path="url(#p5983f4e3bb)" style="fill: none; stroke: #b0b0b0; stroke-opacity: 0.4; stroke-width: 0.8; stroke-linecap: square"/>
     </g>
     <g id="line2d_16">
      <defs>
       <path id="m95f0d2f990" d="M 0 0 
L -3.5 0 
" style="stroke: #000000; stroke-width: 0.8"/>
      </defs>
      <g>
       <use xlink:href="#m95f0d2f990" x="36" y="184.681322" style="stroke: #000000; stroke-width: 0.8"/>
      </g>
     </g>
     <g id="text_8">
      <!-- −1.0 -->
      <g transform="translate(4.717187 188.480541) scale(0.1 -0.1)">
       <defs>
        <path id="DejaVuSans-2212" d="M 678 2272 
L 4684 2272 
L 4684 1741 
L 678 1741 
L 678 2272 
z
" transform="scale(0.015625)"/>
        <path id="DejaVuSans-2e" d="M 684 794 
L 1344 794 
L 1344 0 
L 684 0 
L 684 794 
z
" transform="scale(0.015625)"/>
       </defs>
       <use xlink:href="#DejaVuSans-2212"/>
       <use xlink:href="#DejaVuSans-31" transform="translate(83.789062 0)"/>
       <use xlink:href="#DejaVuSans-2e" transform="translate(147.412109 0)"/>
       <use xlink:href="#DejaVuSans-30" transform="translate(179.199219 0)"/>
      </g>
     </g>
    </g>
    <g id="ytick_2">
     <g id="line2d_17">
      <path d="M 36 146.880992 
L 259.2 146.880992 
" clip-path="url(#p5983f4e3bb)" style="fill: none; stroke: #b0b0b0; stroke-opacity: 0.4; stroke-width: 0.8; stroke-linecap: square"/>
     </g>
     <g id="line2d_18">
      <g>
       <use xlink:href="#m95f0d2f990" x="36" y="146.880992" style="stroke: #000000; stroke-width: 0.8"/>
      </g>
     </g>
     <g id="text_9">
      <!-- −0.5 -->
      <g transform="translate(4.717187 150.68021) scale(0.1 -0.1)">
       <use xlink:href="#DejaVuSans-2212"/>
       <use xlink:href="#DejaVuSans-30" transform="translate(83.789062 0)"/>
       <use xlink:href="#DejaVuSans-2e" transform="translate(147.412109 0)"/>
       <use xlink:href="#DejaVuSans-35" transform="translate(179.199219 0)"/>
      </g>
     </g>
    </g>
    <g id="ytick_3">
     <g id="line2d_19">
      <path d="M 36 109.080661 
L 259.2 109.080661 
" clip-path="url(#p5983f4e3bb)" style="fill: none; stroke: #b0b0b0; stroke-opacity: 0.4; stroke-width: 0.8; stroke-linecap: square"/>
     </g>
     <g id="line2d_20">
      <g>
       <use xlink:href="#m95f0d2f990" x="36" y="109.080661" style="stroke: #000000; stroke-width: 0.8"/>
      </g>
     </g>
     <g id="text_10">
      <!-- 0.0 -->
      <g transform="translate(13.096875 112.87988) scale(0.1 -0.1)">
       <use xlink:href="#DejaVuSans-30"/>
       <use xlink:href="#DejaVuSans-2e" transform="translate(63.623047 0)"/>
       <use xlink:href="#DejaVuSans-30" transform="translate(95.410156 0)"/>
      </g>
     </g>
    </g>
    <g id="ytick_4">
     <g id="line2d_21">
      <path d="M 36 71.280331 
L 259.2 71.280331 
" clip-path="url(#p5983f4e3bb)" style="fill: none; stroke: #b0b0b0; stroke-opacity: 0.4; stroke-width: 0.8; stroke-linecap: square"/>
     </g>
     <g id="line2d_22">
      <g>
       <use xlink:href="#m95f0d2f990" x="36" y="71.280331" style="stroke: #000000; stroke-width: 0.8"/>
      </g>
     </g>
     <g id="text_11">
      <!-- 0.5 -->
      <g transform="translate(13.096875 75.079549) scale(0.1 -0.1)">
       <use xlink:href="#DejaVuSans-30"/>
       <use xlink:href="#DejaVuSans-2e" transform="translate(63.623047 0)"/>
       <use xlink:href="#DejaVuSans-35" transform="translate(95.410156 0)"/>
      </g>
     </g>
    </g>
    <g id="ytick_5">
     <g id="line2d_23">
      <path d="M 36 33.48 
L 259.2 33.48 
" clip-path="url(#p5983f4e3bb)" style="fill: none; stroke: #b0b0b0; stroke-opacity: 0.4; stroke-width: 0.8; stroke-linecap: square"/>
     </g>
     <g id="line2d_24">
      <g>
       <use xlink:href="#m95f0d2f990" x="36" y="33.48" style="stroke: #000000; stroke-width: 0.8"/>
      </g>
     </g>
     <g id="text_12">
      <!-- 1.0 -->
      <g transform="translate(13.096875 37.279219) scale(0.1 -0.1)">
       <use xlink:href="#DejaVuSans-31"/>
       <use xlink:href="#DejaVuSans-2e" transform="translate(63.623047 0)"/>
       <use xlink:href="#DejaVuSans-30" transform="translate(95.410156 0)"/>
      </g>
     </g>
    </g>
   </g>
   <g id="line2d_25">
    <path d="M 46.145455 109.080661 
L 55.322248 88.816749 
L 60.420466 78.108078 
L 64.499041 70.035827 
L 68.577615 62.530798 
L 71.636546 57.340209 
L 74.695477 52.572651 
L 77.754408 48.267106 
L 80.813339 44.458774 
L 82.852627 42.211667 
L 84.891914 40.207641 
L 86.931201 38.453979 
L 88.970489 36.957058 
L 91.009776 35.722318 
L 93.049063 34.754248 
L 95.088351 34.056368 
L 97.127638 33.631213 
L 99.166926 33.480331 
L 101.206213 33.604268 
L 103.2455 34.002574 
L 105.284788 34.673803 
L 107.324075 35.615513 
L 109.363362 36.824281 
L 111.40265 38.295713 
L 113.441937 40.024461 
L 115.481224 42.00424 
L 117.520512 44.227853 
L 119.559799 46.687217 
L 122.61873 50.798513 
L 125.677661 55.386325 
L 128.736592 60.413145 
L 131.795523 65.837872 
L 135.874098 73.612725 
L 139.952672 81.902838 
L 145.050891 92.806016 
L 153.20804 110.912777 
L 161.36519 128.91346 
L 166.463408 139.644828 
L 170.541983 147.74194 
L 174.620557 155.277401 
L 177.679488 160.494207 
L 180.738419 165.290655 
L 183.79735 169.627528 
L 186.856281 173.469367 
L 188.895569 175.739889 
L 190.934856 177.768093 
L 192.974143 179.546606 
L 195.013431 181.068964 
L 197.052718 182.329632 
L 199.092005 183.324028 
L 201.131293 184.048536 
L 203.17058 184.500524 
L 205.209868 184.678347 
L 207.249155 184.58136 
L 209.288442 184.209915 
L 211.32773 183.565363 
L 213.367017 182.650046 
L 215.406304 181.467291 
L 217.445592 180.021399 
L 219.484879 178.317626 
L 221.524166 176.362164 
L 223.563454 174.162122 
L 225.602741 171.725498 
L 228.661672 167.646574 
L 231.720603 163.088813 
L 234.779534 158.08948 
L 237.838465 152.689449 
L 241.91704 144.942837 
L 245.995614 136.675238 
L 249.054545 130.204657 
L 249.054545 130.204657 
" clip-path="url(#p5983f4e3bb)" style="fill: none; stroke: #1f77b4; stroke-width: 2; stroke-linecap: square"/>
   </g>
   <g id="line2d_26">
    <path d="M 46.145455 33.48 
L 48.184742 33.617411 
L 50.224029 34.029143 
L 52.263317 34.7137 
L 54.302604 35.668594 
L 56.341891 36.890354 
L 58.381179 38.374537 
L 60.420466 40.115749 
L 62.459753 42.107661 
L 64.499041 44.34303 
L 67.557972 48.134558 
L 70.616903 52.424384 
L 73.675834 57.177434 
L 76.734765 62.354846 
L 79.793696 67.914289 
L 83.87227 75.842187 
L 87.950845 84.252954 
L 93.049063 95.258782 
L 112.422293 137.753405 
L 116.500868 145.961164 
L 120.579443 153.633142 
L 123.638374 158.968134 
L 126.697305 163.895245 
L 129.756236 168.374189 
L 132.815167 172.368348 
L 134.854454 174.745497 
L 136.893741 176.883942 
L 138.933029 178.775912 
L 140.972316 180.414527 
L 143.011603 181.793832 
L 145.050891 182.908812 
L 147.090178 183.755414 
L 149.129466 184.330561 
L 151.168753 184.632161 
L 153.20804 184.659119 
L 155.247328 184.411336 
L 157.286615 183.889714 
L 159.325902 183.096148 
L 161.36519 182.033523 
L 163.404477 180.705702 
L 165.443764 179.117512 
L 167.483052 177.274725 
L 169.522339 175.184042 
L 171.561626 172.853062 
L 174.620557 168.924802 
L 177.679488 164.507254 
L 180.738419 159.636537 
L 183.79735 154.352473 
L 186.856281 148.698264 
L 190.934856 140.663832 
L 196.033074 129.989909 
L 202.150937 116.577255 
L 215.406304 87.271587 
L 220.504523 76.647672 
L 224.583097 68.667195 
L 227.642028 63.06109 
L 230.700959 57.831243 
L 233.75989 53.020413 
L 236.818821 48.667934 
L 239.877752 44.809391 
L 241.91704 42.527191 
L 243.956327 40.486925 
L 245.995614 38.696009 
L 248.034902 37.160952 
L 249.054545 36.491153 
L 249.054545 36.491153 
" clip-path="url(#p5983f4e3bb)" style="fill: none; stroke-dasharray: 5.55,2.4; stroke-dashoffset: 0; stroke: #ff7f0e; stroke-width: 1.5"/>
   </g>
   <g id="patch_3">
    <path d="M 36 192.24 
L 36 25.92 
" style="fill: none; stroke: #000000; stroke-width: 0.8; stroke-linejoin: miter; stroke-linecap: square"/>
   </g>
   <g id="patch_4">
    <path d="M 259.2 192.24 
L 259.2 25.92 
" style="fill: none; stroke: #000000; stroke-width: 0.8; stroke-linejoin: miter; stroke-linecap: square"/>
   </g>
   <g id="patch_5">
    <path d="M 36 192.24 
L 259.2 192.24 
" style="fill: none; stroke: #000000; stroke-width: 0.8; stroke-linejoin: miter; stroke-linecap: square"/>
   </g>
   <g id="patch_6">
    <path d="M 36 25.92 
L 259.2 25.92 
" style="fill: none; stroke: #000000; stroke-width: 0.8; stroke-linejoin: miter; stroke-linecap: square"/>
   </g>
   <g id="PathCollection_1">
    <defs>
     <path id="C0_0_a9bc8a2a91" d="M 0 3.162278 
C 0.838646 3.162278 1.643056 2.82908 2.236068 2.236068 
C 2.82908 1.643056 3.162278 0.838646 3.162278 -0 
C 3.162278 -0.838646 2.82908 -1.643056 2.236068 -2.236068 
C 1.643056 -2.82908 0.838646 -3.162278 0 -3.162278 
C -0.838646 -3.162278 -1.643056 -2.82908 -2.236068 -2.236068 
C -2.82908 -1.643056 -3.162278 -0.838646 -3.162278 0 
C -3.162278 0.838646 -2.82908 1.643056 -2.236068 2.236068 
C -1.643056 2.82908 -0.838646 3.162278 0 3.162278 
z
"/>
    </defs>
    <g clip-path="url(#p5983f4e3bb)">
     <use xlink:href="#C0_0_a9bc8a2a91" x="46.145455" y="33.48" style="fill: #440154; stroke: #440154"/>
    </g>
    <g clip-path="url(#p5983f4e3bb)">
     <use xlink:href="#C0_0_a9bc8a2a91" x="63.054545" y="42.734839" style="fill: #482173; stroke: #482173"/>
    </g>
    <g clip-path="url(#p5983f4e3bb)">
     <use xlink:href="#C0_0_a9bc8a2a91" x="79.963636" y="68.23345" style="fill: #433e85; stroke: #433e85"/>
    </g>
    <g clip-path="url(#p5983f4e3bb)">
     <use xlink:href="#C0_0_a9bc8a2a91" x="96.872727" y="103.732882" style="fill: #38588c; stroke: #38588c"/>
    </g>
    <g clip-path="url(#p5983f4e3bb)">
     <use xlink:href="#C0_0_a9bc8a2a91" x="113.781818" y="140.541637" style="fill: #2d708e; stroke: #2d708e"/>
    </g>
    <g clip-path="url(#p5983f4e3bb)">
     <use xlink:href="#C0_0_a9bc8a2a91" x="130.690909" y="169.647648" style="fill: #25858e; stroke: #25858e"/>
    </g>
    <g clip-path="url(#p5983f4e3bb)">
     <use xlink:href="#C0_0_a9bc8a2a91" x="147.6" y="183.924748" style="fill: #1e9b8a; stroke: #1e9b8a"/>
    </g>
    <g clip-path="url(#p5983f4e3bb)">
     <use xlink:href="#C0_0_a9bc8a2a91" x="164.509091" y="179.877406" style="fill: #2ab07f; stroke: #2ab07f"/>
    </g>
    <g clip-path="url(#p5983f4e3bb)">
     <use xlink:href="#C0_0_a9bc8a2a91" x="181.418182" y="158.496551" style="fill: #52c569; stroke: #52c569"/>
    </g>
    <g clip-path="url(#p5983f4e3bb)">
     <use xlink:href="#C0_0_a9bc8a2a91" x="198.327273" y="125.016963" style="fill: #86d549; stroke: #86d549"/>
    </g>
    <g clip-path="url(#p5983f4e3bb)">
     <use xlink:href="#C0_0_a9bc8a2a91" x="215.236364" y="87.635612" style="fill: #c2df23; stroke: #c2df23"/>
    </g>
    <g clip-path="url(#p5983f4e3bb)">
     <use xlink:href="#C0_0_a9bc8a2a91" x="232.145455" y="55.504758" style="fill: #fde725; stroke: #fde725"/>
    </g>
   </g>
   <g id="text_13">
    <!-- SR2D vector import -->
    <g transform="translate(88.528125 19.92) scale(0.12 -0.12)">
     <defs>
      <path id="DejaVuSans-53" d="M 3425 4513 
L 3425 3897 
Q 3066 4069 2747 4153 
Q 2428 4238 2131 4238 
Q 1616 4238 1336 4038 
Q 1056 3838 1056 3469 
Q 1056 3159 1242 3001 
Q 1428 2844 1947 2747 
L 2328 2669 
Q 3034 2534 3370 2195 
Q 3706 1856 3706 1288 
Q 3706 609 3251 259 
Q 2797 -91 1919 -91 
Q 1588 -91 1214 -16 
Q 841 59 441 206 
L 441 856 
Q 825 641 1194 531 
Q 1563 422 1919 422 
Q 2459 422 2753 634 
Q 3047 847 3047 1241 
Q 3047 1584 2836 1778 
Q 2625 1972 2144 2069 
L 1759 2144 
Q 1053 2284 737 2584 
Q 422 2884 422 3419 
Q 422 4038 858 4394 
Q 1294 4750 2059 4750 
Q 2388 4750 2728 4690 
Q 3069 4631 3425 4513 
z
" transform="scale(0.015625)"/>
      <path id="DejaVuSans-52" d="M 2841 2188 
Q 3044 2119 3236 1894 
Q 3428 1669 3622 1275 
L 4263 0 
L 3584 0 
L 2988 1197 
Q 2756 1666 2539 1819 
Q 2322 1972 1947 1972 
L 1259 1972 
L 1259 0 
L 628 0 
L 628 4666 
L 2053 4666 
Q 2853 4666 3247 4331 
Q 3641 3997 3641 3322 
Q 3641 2881 3436 2590 
Q 3231 2300 2841 2188 
z
M 1259 4147 
L 1259 2491 
L 2053 2491 
Q 2509 2491 2742 2702 
Q 2975 2913 2975 3322 
Q 2975 3731 2742 3939 
Q 2509 4147 2053 4147 
L 1259 4147 
z
" transform="scale(0.015625)"/>
      <path id="DejaVuSans-44" d="M 1259 4147 
L 1259 519 
L 2022 519 
Q 2988 519 3436 956 
Q 3884 1394 3884 2338 
Q 3884 3275 3436 3711 
Q 2988 4147 2022 4147 
L 1259 4147 
z
M 628 4666 
L 1925 4666 
Q 3281 4666 3915 4102 
Q 4550 3538 4550 2338 
Q 4550 1131 3912 565 
Q 3275 0 1925 0 
L 628 0 
L 628 4666 
z
" transform="scale(0.015625)"/>
      <path id="DejaVuSans-20" transform="scale(0.015625)"/>
      <path id="DejaVuSans-76" d="M 191 3500 
L 800 3500 
L 1894 563 
L 2988 3500 
L 3597 3500 
L 2284 0 
L 1503 0 
L 191 3500 
z
" transform="scale(0.015625)"/>
      <path id="DejaVuSans-65" d="M 3597 1894 
L 3597 1613 
L 953 1613 
Q 991 1019 1311 708 
Q 1631 397 2203 397 
Q 2534 397 2845 478 
Q 3156 559 3463 722 
L 3463 178 
Q 3153 47 2828 -22 
Q 2503 -91 2169 -91 
Q 1331 -91 842 396 
Q 353 884 353 1716 
Q 353 2575 817 3079 
Q 1281 3584 2069 3584 
Q 2775 3584 3186 3129 
Q 3597 2675 3597 1894 
z
M 3022 2063 
Q 3016 2534 2758 2815 
Q 2500 3097 2075 3097 
Q 1594 3097 1305 2825 
Q 1016 2553 972 2059 
L 3022 2063 
z
" transform="scale(0.015625)"/>
      <path id="DejaVuSans-63" d="M 3122 3366 
L 3122 2828 
Q 2878 2963 2633 3030 
Q 2388 3097 2138 3097 
Q 1578 3097 1268 2742 
Q 959 2388 959 1747 
Q 959 1106 1268 751 
Q 1578 397 2138 397 
Q 2388 397 2633 464 
Q 2878 531 3122 666 
L 3122 134 
Q 2881 22 2623 -34 
Q 2366 -91 2075 -91 
Q 1284 -91 818 406 
Q 353 903 353 1747 
Q 353 2603 823 3093 
Q 1294 3584 2113 3584 
Q 2378 3584 2631 3529 
Q 2884 3475 3122 3366 
z
" transform="scale(0.015625)"/>
      <path id="DejaVuSans-74" d="M 1172 4494 
L 1172 3500 
L 2356 3500 
L 2356 3053 
L 1172 3053 
L 1172 1153 
Q 1172 725 1289 603 
Q 1406 481 1766 481 
L 2356 481 
L 2356 0 
L 1766 0 
Q 1100 0 847 248 
Q 594 497 594 1153 
L 594 3053 
L 172 3053 
L 172 3500 
L 594 3500 
L 594 4494 
L 1172 4494 
z
" transform="scale(0.015625)"/>
      <path id="DejaVuSans-6f" d="M 1959 3097 
Q 1497 3097 1228 2736 
Q 959 2375 959 1747 
Q 959 1119 1226 758 
Q 1494 397 1959 397 
Q 2419 397 2687 759 
Q 2956 1122 2956 1747 
Q 2956 2369 2687 2733 
Q 2419 3097 1959 3097 
z
M 1959 3584 
Q 2709 3584 3137 3096 
Q 3566 2609 3566 1747 
Q 3566 888 3137 398 
Q 2709 -91 1959 -91 
Q 1206 -91 779 398 
Q 353 888 353 1747 
Q 353 2609 779 3096 
Q 1206 3584 1959 3584 
z
" transform="scale(0.015625)"/>
      <path id="DejaVuSans-72" d="M 2631 2963 
Q 2534 3019 2420 3045 
Q 2306 3072 2169 3072 
Q 1681 3072 1420 2755 
Q 1159 2438 1159 1844 
L 1159 0 
L 581 0 
L 581 3500 
L 1159 3500 
L 1159 2956 
Q 1341 3275 1631 3429 
Q 1922 3584 2338 3584 
Q 2397 3584 2469 3576 
Q 2541 3569 2628 3553 
L 2631 2963 
z
" transform="scale(0.015625)"/>
      <path id="DejaVuSans-69" d="M 603 3500 
L 1178 3500 
L 1178 0 
L 603 0 
L 603 3500 
z
M 603 4863 
L 1178 4863 
L 1178 4134 
L 603 4134 
L 603 4863 
z
" transform="scale(0.015625)"/>
      <path id="DejaVuSans-6d" d="M 3328 2828 
Q 3544 3216 3844 3400 
Q 4144 3584 4550 3584 
Q 5097 3584 5394 3201 
Q 5691 2819 5691 2113 
L 5691 0 
L 5113 0 
L 5113 2094 
Q 5113 2597 4934 2840 
Q 4756 3084 4391 3084 
Q 3944 3084 3684 2787 
Q 3425 2491 3425 1978 
L 3425 0 
L 2847 0 
L 2847 2094 
Q 2847 2600 2669 2842 
Q 2491 3084 2119 3084 
Q 1678 3084 1418 2786 
Q 1159 2488 1159 1978 
L 1159 0 
L 581 0 
L 581 3500 
L 1159 3500 
L 1159 2956 
Q 1356 3278 1631 3431 
Q 1906 3584 2284 3584 
Q 2666 3584 2933 3390 
Q 3200 3197 3328 2828 
z
" transform="scale(0.015625)"/>
      <path id="DejaVuSans-70" d="M 1159 525 
L 1159 -1331 
L 581 -1331 
L 581 3500 
L 1159 3500 
L 1159 2969 
Q 1341 3281 1617 3432 
Q 1894 3584 2278 3584 
Q 2916 3584 3314 3078 
Q 3713 2572 3713 1747 
Q 3713 922 3314 415 
Q 2916 -91 2278 -91 
Q 1894 -91 1617 61 
Q 1341 213 1159 525 
z
M 3116 1747 
Q 3116 2381 2855 2742 
Q 2594 3103 2138 3103 
Q 1681 3103 1420 2742 
Q 1159 2381 1159 1747 
Q 1159 1113 1420 752 
Q 1681 391 2138 391 
Q 2594 391 2855 752 
Q 3116 1113 3116 1747 
z
" transform="scale(0.015625)"/>
     </defs>
     <use xlink:href="#DejaVuSans-53"/>
     <use xlink:href="#DejaVuSans-52" transform="translate(63.476562 0)"/>
     <use xlink:href="#DejaVuSans-32" transform="translate(132.958984 0)"/>
     <use xlink:href="#DejaVuSans-44" transform="translate(196.582031 0)"/>
     <use xlink:href="#DejaVuSans-20" transform="translate(273.583984 0)"/>
     <use xlink:href="#DejaVuSans-76" transform="translate(305.371094 0)"/>
     <use xlink:href="#DejaVuSans-65" transform="translate(364.550781 0)"/>
     <use xlink:href="#DejaVuSans-63" transform="translate(426.074219 0)"/>
     <use xlink:href="#DejaVuSans-74" transform="translate(481.054688 0)"/>
     <use xlink:href="#DejaVuSans-6f" transform="translate(520.263672 0)"/>
     <use xlink:href="#DejaVuSans-72" transform="translate(581.445312 0)"/>
     <use xlink:href="#DejaVuSans-20" transform="translate(622.558594 0)"/>
     <use xlink:href="#DejaVuSans-69" transform="translate(654.345703 0)"/>
     <use xlink:href="#DejaVuSans-6d" transform="translate(682.128906 0)"/>
     <use xlink:href="#DejaVuSans-70" transform="translate(779.541016 0)"/>
     <use xlink:href="#DejaVuSans-6f" transform="translate(843.017578 0)"/>
     <use xlink:href="#DejaVuSans-72" transform="translate(904.199219 0)"/>
     <use xlink:href="#DejaVuSans-74" transform="translate(945.3125 0)"/>
    </g>
   </g>
   <g id="legend_1">
    <g id="patch_7">
     <path d="M 43 187.24 
L 91.826562 187.24 
Q 93.826562 187.24 93.826562 185.24 
L 93.826562 156.88375 
Q 93.826562 154.88375 91.826562 154.88375 
L 43 154.88375 
Q 41 154.88375 41 156.88375 
L 41 185.24 
Q 41 187.24 43 187.24 
z
" style="fill: #ffffff; opacity: 0.8; stroke: #cccccc; stroke-linejoin: miter"/>
    </g>
    <g id="line2d_27">
     <path d="M 45 162.982188 
L 55 162.982188 
L 65 162.982188 
" style="fill: none; stroke: #1f77b4; stroke-width: 2; stroke-linecap: square"/>
    </g>
    <g id="text_14">
     <!-- sin -->
     <g transform="translate(73 166.482188) scale(0.1 -0.1)">
      <defs>
       <path id="DejaVuSans-73" d="M 2834 3397 
L 2834 2853 
Q 2591 2978 2328 3040 
Q 2066 3103 1784 3103 
Q 1356 3103 1142 2972 
Q 928 2841 928 2578 
Q 928 2378 1081 2264 
Q 1234 2150 1697 2047 
L 1894 2003 
Q 2506 1872 2764 1633 
Q 3022 1394 3022 966 
Q 3022 478 2636 193 
Q 2250 -91 1575 -91 
Q 1294 -91 989 -36 
Q 684 19 347 128 
L 347 722 
Q 666 556 975 473 
Q 1284 391 1588 391 
Q 1994 391 2212 530 
Q 2431 669 2431 922 
Q 2431 1156 2273 1281 
Q 2116 1406 1581 1522 
L 1381 1569 
Q 847 1681 609 1914 
Q 372 2147 372 2553 
Q 372 3047 722 3315 
Q 1072 3584 1716 3584 
Q 2034 3584 2315 3537 
Q 2597 3491 2834 3397 
z
" transform="scale(0.015625)"/>
       <path id="DejaVuSans-6e" d="M 3513 2113 
L 3513 0 
L 2938 0 
L 2938 2094 
Q 2938 2591 2744 2837 
Q 2550 3084 2163 3084 
Q 1697 3084 1428 2787 
Q 1159 2491 1159 1978 
L 1159 0 
L 581 0 
L 581 3500 
L 1159 3500 
L 1159 2956 
Q 1366 3272 1645 3428 
Q 1925 3584 2291 3584 
Q 2894 3584 3203 3211 
Q 3513 2838 3513 2113 
z
" transform="scale(0.015625)"/>
      </defs>
      <use xlink:href="#DejaVuSans-73"/>
      <use xlink:href="#DejaVuSans-69" transform="translate(52.099609 0)"/>
      <use xlink:href="#DejaVuSans-6e" transform="translate(79.882812 0)"/>
     </g>
    </g>
    <g id="line2d_28">
     <path d="M 45 177.660313 
L 55 177.660313 
L 65 177.660313 
" style="fill: none; stroke-dasharray: 5.55,2.4; stroke-dashoffset: 0; stroke: #ff7f0e; stroke-width: 1.5"/>
    </g>
    <g id="text_15">
     <!-- cos -->
     <g transform="translate(73 181.160313) scale(0.1 -0.1)">
      <use xlink:href="#DejaVuSans-63"/>
      <use xlink:href="#DejaVuSans-6f" transform="translate(54.980469 0)"/>
      <use xlink:href="#DejaVuSans-73" transform="translate(116.162109 0)"/>
     </g>
    </g>
   </g>
  </g>
 </g>
 <defs>
  <clipPath id="p5983f4e3bb">
   <rect x="36" y="25.92" width="223.2" height="166.32"/>
  </clipPath>
 </defs>
</svg>
